<svg xmlns="http://www.w3.org/2000/svg" viewBox="0 0 512 432"><path d="M1 432V2h512v430H1zM492.4 22.9H21.8v388.3h470.6V22.9z"/><path d="M471.8 43.3v347.5H42.4V43.3h429.4zm-409 20.3v191c2-1.8 3.3-3 4.6-4.2 36.1-33.3 72.2-66.7 108.4-100 7.3-6.8 12.7-6.6 19.2.6 33.2 36.2 66.4 72.5 99.6 108.7 1.1 1.2 2 2.6 3.2 4.1 2-1.9 3.3-3.1 4.6-4.4l36.4-36.4c8-7.9 12.7-8 20.7 0 29.2 29.2 58.4 58.4 87.7 87.6 1.2 1.2 2.4 2.3 4.1 3.9v-251c-129.6.1-258.8.1-388.5.1zm122.1 106.6c-.8.5-1.2.8-1.6 1.1-39.4 36.4-78.8 72.8-118.1 109.3-1.6 1.5-2.7 4.3-2.7 6.4-.2 26.2-.1 52.3-.1 78.5 0 1.6.2 3.2.3 4.7h388.9c0-7.3-.2-14.1.1-20.9.1-3.6-1-6.2-3.6-8.8-31.9-31.7-63.7-63.6-95.5-95.4-1.1-1.1-2.3-2.1-3.6-3.3l-42.7 42.7c-10.2 10.2-20.4 20.6-30.8 30.7-6.4 6.2-15.1 4.6-17.7-3.1-1.7-5 .7-8.7 4-12 7.2-7.3 14.6-14.5 22.1-21.9-33.4-36.3-66.2-72.2-99-108z"/><path d="M328.8 145.4c0-17.1 13.7-30.8 30.7-30.7 16.8.1 30.4 13.7 30.5 30.5 0 16.9-13.9 30.9-30.8 30.8-16.7-.1-30.3-13.8-30.4-30.6z"/></svg>