<svg xmlns="http://www.w3.org/2000/svg" width="1024" height="1024" viewBox="0 0 1024 1024"><path d="M170.08 296.765L417.6 512 170.019 727.287C163.813 721.409 160 713.052 160 703.78V320.218a32.18 32.18 0 0 1 10.08-23.454zm715.901-.052C892.187 302.591 896 310.948 896 320.22v383.562a32.182 32.182 0 0 1-10.08 23.454L638.4 512.001l247.581-215.287zM614.459 532.819L848 736H208l233.541-203.181L528 608l86.459-75.181zM192.115 256C156.705 256 128 284.624 128 319.81v384.38c0 35.241 28.472 63.81 64.115 63.81h671.77c35.41 0 64.115-28.624 64.115-63.81V319.81c0-35.241-28.472-63.81-64.115-63.81h-671.77zM528 566.4L208 288h640L528 566.4z"/></svg>