<svg xmlns="http://www.w3.org/2000/svg" viewBox="0 0 512 370"><path d="M513 2v327c-2 .1-4 .3-6 .3H6.9c-2 0-4-.2-6-.3C1 220 1 111 1 2c1.8-.1 3.7-.2 5.5-.2h501c1.8 0 3.7.1 5.5.2zm-20.8 20.5H21.8v286.1h470.4V22.5zM257 370.2H117c-4.3 0-8.3-.3-11.2-4-4.2-5.3-1.9-13.4 4.6-15.4 2.2-.7 4.6-.9 6.9-.9 93.3 0 186.6 0 280-.1 4.3 0 8.3.5 11.1 4.2 3.9 5.2 1.7 13.2-4.5 15.1-2.5.8-5.2.9-7.9.9-46.3.2-92.7.2-139 .2z"/><path d="M205.9 171.6v-61.9c0-9.2 4.4-11.8 12.4-7.2 35.9 20.7 71.7 41.4 107.6 62.1 7.8 4.5 7.7 9.8-.2 14.4-35.7 20.6-71.4 41.3-107.2 61.9-8.2 4.7-12.6 2.2-12.6-7.3v-62z"/></svg>